<svg width="1600" height="980" viewBox="0 0 1600 980" fill="none" xmlns="http://www.w3.org/2000/svg">
<rect width="1600" height="980" rx="48" fill="#F7F0E7"/>
<rect x="52" y="40" width="1496" height="900" rx="40" fill="#FFFDF8" stroke="#E9DBC7" stroke-width="3"/>
<rect x="96" y="84" width="1408" height="64" rx="22" fill="#FFFCF6"/>
<circle cx="142" cy="116" r="8" fill="#D8A89A"/><circle cx="168" cy="116" r="8" fill="#E5C375"/><circle cx="194" cy="116" r="8" fill="#90B58F"/>
<rect x="232" y="104" width="186" height="24" rx="12" fill="#5D4124"/>
<rect x="1068" y="106" width="116" height="20" rx="10" fill="#C6A06D"/>
<rect x="1210" y="106" width="116" height="20" rx="10" fill="#D7C2A0"/>
<rect x="1352" y="98" width="108" height="36" rx="18" fill="#5D4124"/>
<rect x="96" y="176" width="1408" height="330" rx="36" fill="url(#heroBakery)"/>
<rect x="136" y="228" width="172" height="16" rx="8" fill="#8F6A3D" fill-opacity="0.7"/>
<rect x="136" y="270" width="592" height="44" rx="20" fill="#3B2A14"/>
<rect x="136" y="330" width="470" height="24" rx="12" fill="#7D6340" fill-opacity="0.5"/>
<rect x="136" y="368" width="392" height="24" rx="12" fill="#7D6340" fill-opacity="0.35"/>
<rect x="136" y="428" width="182" height="52" rx="26" fill="#3B2A14"/>
<rect x="338" y="428" width="172" height="52" rx="26" fill="#FFF9EF" stroke="#E7D6BF" stroke-width="2"/>
<rect x="968" y="226" width="462" height="238" rx="28" fill="#FFF9EF" fill-opacity="0.76"/>
<rect x="1000" y="258" width="180" height="18" rx="9" fill="#8F6A3D" fill-opacity="0.75"/>
<rect x="1000" y="298" width="388" height="22" rx="11" fill="#3B2A14" fill-opacity="0.9"/>
<rect x="1000" y="336" width="302" height="18" rx="9" fill="#3B2A14" fill-opacity="0.22"/>
<rect x="1000" y="374" width="356" height="18" rx="9" fill="#3B2A14" fill-opacity="0.14"/>
<rect x="1000" y="416" width="208" height="20" rx="10" fill="#E9D9C0"/>
<rect x="96" y="538" width="952" height="342" rx="30" fill="#FFFFFF" stroke="#EEE1CE" stroke-width="2"/>
<rect x="132" y="574" width="220" height="16" rx="8" fill="#8F6A3D" fill-opacity="0.75"/>
<rect x="132" y="610" width="364" height="28" rx="14" fill="#3B2A14"/>
<g>
<rect x="132" y="670" width="276" height="170" rx="24" fill="#FBF2E5" stroke="#EEDDC8" stroke-width="2"/>
<rect x="152" y="688" width="236" height="90" rx="18" fill="url(#cardA)"/>
<rect x="152" y="798" width="160" height="14" rx="7" fill="#3B2A14" fill-opacity="0.8"/>
<rect x="152" y="822" width="106" height="12" rx="6" fill="#3B2A14" fill-opacity="0.18"/>
</g>
<g>
<rect x="434" y="670" width="276" height="170" rx="24" fill="#FBF2E5" stroke="#EEDDC8" stroke-width="2"/>
<rect x="454" y="688" width="236" height="90" rx="18" fill="url(#cardB)"/>
<rect x="454" y="798" width="180" height="14" rx="7" fill="#3B2A14" fill-opacity="0.8"/>
<rect x="454" y="822" width="120" height="12" rx="6" fill="#3B2A14" fill-opacity="0.18"/>
</g>
<g>
<rect x="736" y="670" width="276" height="170" rx="24" fill="#FBF2E5" stroke="#EEDDC8" stroke-width="2"/>
<rect x="756" y="688" width="236" height="90" rx="18" fill="url(#cardC)"/>
<rect x="756" y="798" width="154" height="14" rx="7" fill="#3B2A14" fill-opacity="0.8"/>
<rect x="756" y="822" width="112" height="12" rx="6" fill="#3B2A14" fill-opacity="0.18"/>
</g>
<rect x="1080" y="538" width="424" height="342" rx="30" fill="#5D4124"/>
<rect x="1120" y="580" width="178" height="16" rx="8" fill="#E5C08C" fill-opacity="0.9"/>
<rect x="1120" y="620" width="344" height="52" rx="16" fill="#FFF8EE"/>
<rect x="1120" y="690" width="344" height="52" rx="16" fill="#FFF8EE" fill-opacity="0.15"/>
<rect x="1120" y="760" width="220" height="52" rx="16" fill="#FFF8EE" fill-opacity="0.15"/>
<rect x="1326" y="760" width="138" height="52" rx="26" fill="#E5C08C"/>
<defs>
<linearGradient id="heroBakery" x1="96" y1="176" x2="1504" y2="506" gradientUnits="userSpaceOnUse">
<stop stop-color="#E9D3B4"/><stop offset="0.45" stop-color="#D5B184"/><stop offset="1" stop-color="#B5854D"/>
</linearGradient>
<linearGradient id="cardA" x1="152" y1="688" x2="388" y2="778" gradientUnits="userSpaceOnUse">
<stop stop-color="#F0CF99"/><stop offset="1" stop-color="#D1A06B"/>
</linearGradient>
<linearGradient id="cardB" x1="454" y1="688" x2="690" y2="778" gradientUnits="userSpaceOnUse">
<stop stop-color="#B87A44"/><stop offset="1" stop-color="#80512B"/>
</linearGradient>
<linearGradient id="cardC" x1="756" y1="688" x2="992" y2="778" gradientUnits="userSpaceOnUse">
<stop stop-color="#E5C792"/><stop offset="1" stop-color="#F5E7D0"/>
</linearGradient>
</defs>
</svg>
