<svg width="1600" height="980" viewBox="0 0 1600 980" fill="none" xmlns="http://www.w3.org/2000/svg">
<rect width="1600" height="980" rx="48" fill="#0B1221"/>
<rect x="52" y="40" width="1496" height="900" rx="40" fill="#111B31" stroke="#24324B" stroke-width="3"/>
<rect x="96" y="84" width="1408" height="64" rx="22" fill="#111B31"/>
<circle cx="142" cy="116" r="8" fill="#D8A89A"/><circle cx="168" cy="116" r="8" fill="#E5C375"/><circle cx="194" cy="116" r="8" fill="#90B58F"/>
<rect x="232" y="104" width="186" height="24" rx="12" fill="#F59E0B"/>
<rect x="1086" y="106" width="96" height="20" rx="10" fill="#CBD5E1" fill-opacity="0.5"/><rect x="1210" y="106" width="96" height="20" rx="10" fill="#CBD5E1" fill-opacity="0.24"/><rect x="1334" y="98" width="126" height="36" rx="18" fill="#F59E0B"/>
<rect x="96" y="176" width="1408" height="326" rx="36" fill="url(#garageHero)"/>
<rect x="136" y="220" width="160" height="16" rx="8" fill="#F59E0B" fill-opacity="0.95"/>
<rect x="136" y="262" width="598" height="46" rx="22" fill="#F8FBFF"/>
<rect x="136" y="322" width="460" height="24" rx="12" fill="#F8FBFF" fill-opacity="0.35"/>
<rect x="136" y="360" width="410" height="24" rx="12" fill="#F8FBFF" fill-opacity="0.22"/>
<rect x="136" y="424" width="196" height="52" rx="26" fill="#F59E0B"/>
<rect x="352" y="424" width="176" height="52" rx="26" fill="#FFFFFF" fill-opacity="0.08"/>
<rect x="984" y="214" width="448" height="252" rx="30" fill="#0E172A" fill-opacity="0.78" stroke="#31415E" stroke-width="2"/>
<rect x="1018" y="248" width="162" height="16" rx="8" fill="#F59E0B" fill-opacity="0.95"/>
<rect x="1018" y="286" width="344" height="22" rx="11" fill="#F8FBFF"/>
<rect x="1018" y="324" width="292" height="18" rx="9" fill="#F8FBFF" fill-opacity="0.22"/>
<rect x="1018" y="358" width="364" height="18" rx="9" fill="#F8FBFF" fill-opacity="0.12"/>
<rect x="1018" y="404" width="238" height="44" rx="14" fill="#F59E0B"/>
<rect x="96" y="530" width="908" height="350" rx="30" fill="#121F39" stroke="#24324B" stroke-width="2"/>
<rect x="132" y="566" width="178" height="16" rx="8" fill="#F59E0B" fill-opacity="0.85"/>
<rect x="132" y="604" width="286" height="28" rx="14" fill="#F8FBFF"/>
<rect x="132" y="664" width="260" height="172" rx="24" fill="#0E172A" stroke="#24324B" stroke-width="2"/>
<rect x="156" y="688" width="212" height="84" rx="18" fill="url(#serviceA)"/>
<rect x="156" y="792" width="160" height="14" rx="7" fill="#F8FBFF" fill-opacity="0.9"/>
<rect x="156" y="818" width="122" height="12" rx="6" fill="#F8FBFF" fill-opacity="0.16"/>
<rect x="418" y="664" width="260" height="172" rx="24" fill="#0E172A" stroke="#24324B" stroke-width="2"/>
<rect x="442" y="688" width="212" height="84" rx="18" fill="url(#serviceB)"/>
<rect x="442" y="792" width="162" height="14" rx="7" fill="#F8FBFF" fill-opacity="0.9"/>
<rect x="442" y="818" width="110" height="12" rx="6" fill="#F8FBFF" fill-opacity="0.16"/>
<rect x="704" y="664" width="268" height="172" rx="24" fill="#F59E0B"/>
<rect x="732" y="694" width="212" height="18" rx="9" fill="#111B31" fill-opacity="0.9"/>
<rect x="732" y="732" width="212" height="52" rx="16" fill="#FFFFFF"/>
<rect x="732" y="798" width="138" height="40" rx="20" fill="#111B31"/>
<rect x="1040" y="530" width="464" height="350" rx="30" fill="#0E172A" stroke="#24324B" stroke-width="2"/>
<rect x="1078" y="568" width="168" height="16" rx="8" fill="#F59E0B" fill-opacity="0.95"/>
<rect x="1078" y="608" width="350" height="52" rx="16" fill="#F8FBFF"/>
<rect x="1078" y="678" width="350" height="52" rx="16" fill="#F8FBFF" fill-opacity="0.1"/>
<rect x="1078" y="748" width="350" height="52" rx="16" fill="#F8FBFF" fill-opacity="0.1"/>
<rect x="1268" y="816" width="160" height="44" rx="22" fill="#F59E0B"/>
<defs>
<linearGradient id="garageHero" x1="96" y1="176" x2="1504" y2="502" gradientUnits="userSpaceOnUse">
<stop stop-color="#253A63"/><stop offset="0.52" stop-color="#111B31"/><stop offset="1" stop-color="#0A1220"/>
</linearGradient>
<linearGradient id="serviceA" x1="156" y1="688" x2="368" y2="772" gradientUnits="userSpaceOnUse">
<stop stop-color="#D9E5F6"/><stop offset="1" stop-color="#8AA7D3"/>
</linearGradient>
<linearGradient id="serviceB" x1="442" y1="688" x2="654" y2="772" gradientUnits="userSpaceOnUse">
<stop stop-color="#4A678F"/><stop offset="1" stop-color="#1B2A42"/>
</linearGradient>
</defs>
</svg>
